<svg version="1.1" id="Слой_1" xmlns="http://www.w3.org/2000/svg" x="0" y="0" viewBox="0 0 16.85 21" xml:space="preserve"><style/><path d="M11.48 6.13c0 .61-.18 1.2-.52 1.7s-.81.9-1.37 1.13a3.058 3.058 0 01-3.33-.67c-.43-.43-.72-.97-.84-1.57-.12-.59-.06-1.21.17-1.76s.62-1.04 1.13-1.37c.5-.34 1.1-.52 1.7-.52.81 0 1.59.32 2.17.9.57.57.89 1.34.89 2.16zM3.93 1.96c-.92.99-1.48 2.26-1.61 3.6-.12 1.35.21 2.7.93 3.84l5.17 8.16L13.6 9.4c.82-1.29 1.12-2.84.85-4.34s-1.09-2.85-2.3-3.78S9.43-.11 7.91.02C6.39.15 4.97.84 3.93 1.96z"/><path d="M16.85 18.03c0-1.66-2.88-2.53-5.81-2.83l-.71 1.13c3.5.27 5.33 1.22 5.33 1.71 0 .63-2.75 1.78-7.24 1.78s-7.24-1.15-7.24-1.78c0-.48 1.83-1.44 5.33-1.71l-.7-1.13C2.88 15.51 0 16.38 0 18.03 0 20.07 4.37 21 8.42 21c4.06 0 8.43-.93 8.43-2.97z"/></svg>