<svg version="1.1" id="Слой_1" xmlns="http://www.w3.org/2000/svg" x="0" y="0" viewBox="0 0 20 20" xml:space="preserve"><style/><path d="M15.05 18.7H1.28V4.93h8.33l1.28-1.28H.65c-.36 0-.65.29-.65.65v15.05c0 .36.29.65.65.65H15.7c.36 0 .65-.27.65-.65V9.06l-1.3 1.28v8.36z"/><path d="M14.21 4.59l-6.06 6.06-.51-.51 6.08-6.08.49.53zm-8.09 5.54l3.73 3.73 7.56-7.56-3.73-3.73-7.56 7.56zm13.64-7.35L17.2.24a.82.82 0 00-1.16 0L14.5 1.77l3.73 3.73 1.54-1.54c.31-.33.31-.86-.01-1.18zM4.38 16.25l4.65-1.58-3.73-3.72-1.57 4.65c-.15.4.25.8.65.65z"/></svg>