<svg version="1.1" id="Слой_1" xmlns="http://www.w3.org/2000/svg" x="0" y="0" viewBox="0 0 26.67 26.67" xml:space="preserve"><style/><path d="M21.95 20.34c-.29-.65-.88-1.1-2.08-1.38-2.55-.59-4.92-1.1-3.77-3.27 3.49-6.6.93-10.13-2.77-10.13-3.76 0-6.27 3.67-2.77 10.13 1.18 2.18-1.28 2.7-3.77 3.27-1.2.28-1.79.73-2.07 1.38-1.56-1.91-2.5-4.35-2.5-7.01C2.22 7.2 7.2 2.22 13.33 2.22c6.13 0 11.11 4.98 11.11 11.11 0 2.66-.93 5.1-2.49 7.01zM13.33 0C5.97 0 0 5.97 0 13.33s5.97 13.33 13.33 13.33 13.33-5.97 13.33-13.33C26.67 5.97 20.7 0 13.33 0z"/></svg>