<?xml version="1.0" encoding="utf-8"?>
<!-- Generator: Adobe Illustrator 25.0.1, SVG Export Plug-In . SVG Version: 6.00 Build 0)  -->
<svg version="1.1" id="Слой_1" xmlns="http://www.w3.org/2000/svg" xmlns:xlink="http://www.w3.org/1999/xlink" x="0px" y="0px"
	 viewBox="0 0 16.85 21" style="enable-background:new 0 0 16.85 21;" xml:space="preserve">
<style type="text/css">
	.st0{fill:#FFFFFF;}
	.st1{clip-path:url(#SVGID_4_);}
	.st2{clip-path:url(#SVGID_10_);}
	.st3{fill:#DCDCDC;}
	.st4{clip-path:url(#SVGID_16_);}
	.st5{clip-path:url(#SVGID_22_);}
	.st6{clip-path:url(#SVGID_28_);}
	.st7{clip-path:url(#SVGID_36_);fill:#C4C4C4;}
	.st8{clip-path:url(#SVGID_38_);fill:#C4C4C4;}
	.st9{clip-path:url(#SVGID_40_);fill:#C4C4C4;}
	.st10{clip-path:url(#SVGID_42_);fill:#C4C4C4;}
	.st11{fill:#505050;}
	.st12{fill:#E8A09F;}
	.st13{fill-rule:evenodd;clip-rule:evenodd;}
</style>
<g>
	<path d="M11.48,6.13c0,0.61-0.18,1.2-0.52,1.7c-0.34,0.5-0.81,0.9-1.37,1.13C9.03,9.19,8.42,9.25,7.82,9.13S6.69,8.72,6.26,8.29
		C5.83,7.86,5.54,7.32,5.42,6.72C5.3,6.13,5.36,5.51,5.59,4.96s0.62-1.04,1.13-1.37c0.5-0.34,1.1-0.52,1.7-0.52
		c0.81,0,1.59,0.32,2.17,0.9C11.16,4.54,11.48,5.31,11.48,6.13z M3.93,1.96c-0.92,0.99-1.48,2.26-1.61,3.6
		C2.2,6.91,2.53,8.26,3.25,9.4l5.17,8.16L13.6,9.4c0.82-1.29,1.12-2.84,0.85-4.34s-1.09-2.85-2.3-3.78S9.43-0.11,7.91,0.02
		C6.39,0.15,4.97,0.84,3.93,1.96L3.93,1.96z"/>
	<path d="M16.85,18.03c0-1.66-2.88-2.53-5.81-2.83l-0.71,1.13c3.5,0.27,5.33,1.22,5.33,1.71c0,0.63-2.75,1.78-7.24,1.78
		c-4.49,0-7.24-1.15-7.24-1.78c0-0.48,1.83-1.44,5.33-1.71L5.81,15.2C2.88,15.51,0,16.38,0,18.03C0,20.07,4.37,21,8.42,21
		C12.48,21,16.85,20.07,16.85,18.03z"/>
</g>
</svg>
