<?xml version="1.0" encoding="utf-8"?>
<!-- Generator: Adobe Illustrator 25.0.1, SVG Export Plug-In . SVG Version: 6.00 Build 0)  -->
<svg version="1.1" id="Слой_1" xmlns="http://www.w3.org/2000/svg" xmlns:xlink="http://www.w3.org/1999/xlink" x="0px" y="0px"
	 viewBox="0 0 20 20" style="enable-background:new 0 0 20 20;" xml:space="preserve">
<style type="text/css">
	.st0{fill:#FFFFFF;}
	.st1{clip-path:url(#SVGID_4_);}
	.st2{clip-path:url(#SVGID_10_);}
	.st3{fill:#DCDCDC;}
	.st4{clip-path:url(#SVGID_16_);}
	.st5{clip-path:url(#SVGID_22_);}
	.st6{clip-path:url(#SVGID_28_);}
	.st7{clip-path:url(#SVGID_36_);fill:#C4C4C4;}
	.st8{clip-path:url(#SVGID_38_);fill:#C4C4C4;}
	.st9{clip-path:url(#SVGID_40_);fill:#C4C4C4;}
	.st10{clip-path:url(#SVGID_42_);fill:#C4C4C4;}
	.st11{fill:#505050;}
	.st12{fill:#E8A09F;}
	.st13{fill-rule:evenodd;clip-rule:evenodd;}
</style>
<g>
	<path d="M15.05,18.7H1.28V4.93h8.33l1.28-1.28H0.65C0.29,3.65,0,3.94,0,4.3v15.05C0,19.71,0.29,20,0.65,20H15.7
		c0.36,0,0.65-0.27,0.65-0.65V9.06l-1.3,1.28V18.7z"/>
	<path d="M14.21,4.59l-6.06,6.06l-0.51-0.51l6.08-6.08L14.21,4.59z M6.12,10.13l3.73,3.73l7.56-7.56l-3.73-3.73L6.12,10.13z"/>
	<path d="M19.76,2.78L17.2,0.24c-0.32-0.32-0.84-0.32-1.16,0L14.5,1.77l3.73,3.73l1.54-1.54C20.08,3.63,20.08,3.1,19.76,2.78z"/>
	<path d="M4.38,16.25l4.65-1.58L5.3,10.95L3.73,15.6C3.58,16,3.98,16.4,4.38,16.25z"/>
</g>
</svg>
