<?xml version="1.0" encoding="utf-8"?>
<!-- Generator: Adobe Illustrator 25.0.1, SVG Export Plug-In . SVG Version: 6.00 Build 0)  -->
<svg version="1.1" id="Слой_1" xmlns="http://www.w3.org/2000/svg" xmlns:xlink="http://www.w3.org/1999/xlink" x="0px" y="0px"
	 viewBox="0 0 26.67 26.67" style="enable-background:new 0 0 26.67 26.67;" xml:space="preserve">
<style type="text/css">
	.st0{fill:#FFFFFF;}
	.st1{clip-path:url(#SVGID_4_);}
	.st2{clip-path:url(#SVGID_10_);}
	.st3{fill:#DCDCDC;}
	.st4{clip-path:url(#SVGID_16_);}
	.st5{clip-path:url(#SVGID_22_);}
	.st6{clip-path:url(#SVGID_28_);}
	.st7{clip-path:url(#SVGID_36_);fill:#C4C4C4;}
	.st8{clip-path:url(#SVGID_38_);fill:#C4C4C4;}
	.st9{clip-path:url(#SVGID_40_);fill:#C4C4C4;}
	.st10{clip-path:url(#SVGID_42_);fill:#C4C4C4;}
	.st11{fill:#505050;}
	.st12{fill:#E8A09F;}
	.st13{fill-rule:evenodd;clip-rule:evenodd;}
</style>
<path d="M21.95,20.34c-0.29-0.65-0.88-1.1-2.08-1.38c-2.55-0.59-4.92-1.1-3.77-3.27c3.49-6.6,0.93-10.13-2.77-10.13
	c-3.76,0-6.27,3.67-2.77,10.13c1.18,2.18-1.28,2.7-3.77,3.27c-1.2,0.28-1.79,0.73-2.07,1.38c-1.56-1.91-2.5-4.35-2.5-7.01
	c0-6.13,4.98-11.11,11.11-11.11c6.13,0,11.11,4.98,11.11,11.11C24.44,15.99,23.51,18.43,21.95,20.34z M13.33,0
	C5.97,0,0,5.97,0,13.33c0,7.36,5.97,13.33,13.33,13.33s13.33-5.97,13.33-13.33C26.67,5.97,20.7,0,13.33,0z"/>
</svg>
